# xmcd
#
# Track frame offsets:
#	150
#	14253
#	39138
#	64679
#	82951
#	98766
#
# Disc length: 1591 seconds
# Revision: 0
# Processed by: cddbd v1.5.2PL0 Copyright (c) Steve Scherf et al.
# Submitted via: dBpowerAMP V12.0
#
DISCID=37063506
DTITLE=Flórián Band - Szép álmokat, Budapest!
DYEAR=2005
DGENRE=Blues
TTITLE0=Harcolj a tűzzel
TTITLE1=Tüzes Blues
TTITLE2=Hideg éjszakák
TTITLE3=Egyedül nem győzhetek
TTITLE4=Könnyek
TTITLE5=Szép álmokat Budapest
EXTD=
EXTT0=
EXTT1=
EXTT2=
EXTT3=
EXTT4=
EXTT5=
PLAYORDER=
